<svg width="235" height="235" viewBox="0 0 235 235" fill="none" xmlns="http://www.w3.org/2000/svg">
<path d="M197.342 99.6093C201.037 116.369 199.381 133.866 192.606 149.634C185.832 165.403 174.28 178.648 159.579 187.505C144.879 196.361 127.77 200.381 110.663 198.999C93.5566 197.617 77.3147 190.903 64.2261 179.802C51.1374 168.701 41.8617 153.773 37.7059 137.122C33.5501 120.47 34.7236 102.934 41.0612 86.9851C47.3988 71.0358 58.581 57.477 73.0321 48.2191C87.4833 38.9612 104.475 34.4709 121.613 35.3809" stroke="white" stroke-width="2"/>
<path d="M101.448 187.507C86.7465 184.196 73.4547 176.356 63.4449 165.091C53.4351 153.827 47.212 139.706 45.6523 124.717C44.0927 109.729 47.2752 94.6289 54.7514 81.5449C62.2276 68.4609 73.6207 58.0524 87.3253 51.786C101.03 45.5196 116.355 43.7111 131.142 46.6154C145.929 49.5197 159.432 56.9903 169.748 67.9747C180.065 78.9591 186.674 92.9036 188.646 107.843C190.619 122.783 187.853 137.965 180.741 151.25" stroke="white" stroke-width="4"/>
<path d="M66.7711 146.907C60.504 136.402 57.691 124.195 58.7284 112.007C59.7658 99.8183 64.6014 88.2626 72.5537 78.9678C80.506 69.673 91.1743 63.1076 103.055 60.1966C114.936 57.2857 127.431 58.176 138.78 62.742C150.128 67.308 159.758 75.3197 166.312 85.6481C172.866 95.9765 176.014 108.101 175.313 120.313C174.612 132.526 170.097 144.21 162.404 153.721C154.71 163.231 144.227 170.088 132.431 173.325" stroke="white" stroke-width="8"/>
<path d="M80.7372 88.6281C86.5038 81.0007 94.5183 75.3749 103.651 72.5434C112.784 69.7119 122.576 69.8173 131.646 72.8449C140.716 75.8725 148.607 81.6696 154.208 89.4194C159.809 97.1692 162.837 106.481 162.866 116.043C162.895 125.605 159.923 134.935 154.369 142.718C148.814 150.502 140.958 156.346 131.906 159.428C122.855 162.51 113.064 162.675 103.914 159.898C94.7643 157.122 86.7162 151.544 80.9038 143.952" stroke="white" stroke-width="4"/>
<path d="M96.84 124.82C96.84 124.98 95.92 125.06 94.08 125.06C92.26 125.06 91.35 124.99 91.35 124.85V110.12C91.35 109.98 92.26 109.91 94.08 109.91C95.92 109.91 96.84 109.97 96.84 110.09V124.82ZM96.84 108.32C96.84 108.46 95.92 108.53 94.08 108.53C92.26 108.53 91.35 108.47 91.35 108.35V104.03C91.35 103.83 92.26 103.73 94.08 103.73C95.92 103.73 96.84 103.79 96.84 103.91V108.32ZM102.343 113.87C101.563 113.87 100.843 113.66 100.183 113.24C99.5231 112.82 98.9931 112.27 98.5931 111.59C98.1931 110.89 97.9931 110.16 97.9931 109.4C97.9931 108.4 98.2331 107.51 98.7131 106.73C99.2131 105.95 99.8531 105.29 100.633 104.75C101.433 104.21 102.303 103.8 103.243 103.52C104.183 103.24 105.093 103.1 105.973 103.1C107.013 103.1 108.013 103.24 108.973 103.52C109.933 103.8 110.863 104.15 111.763 104.57C112.663 104.99 113.523 105.42 114.343 105.86C115.163 106.28 115.943 106.63 116.683 106.91C117.423 107.19 118.113 107.33 118.753 107.33C119.593 107.33 120.183 107.09 120.523 106.61C120.863 106.13 121.033 105.53 121.033 104.81V104.72C121.033 104.62 121.043 104.52 121.063 104.42C121.103 104.3 121.183 104.24 121.303 104.24C121.503 104.24 121.613 104.37 121.633 104.63C121.673 104.89 121.693 105.09 121.693 105.23C121.693 105.83 121.533 106.33 121.213 106.73C120.893 107.11 120.483 107.4 119.983 107.6C119.483 107.78 118.963 107.87 118.423 107.87C117.623 107.87 116.843 107.74 116.083 107.48C115.343 107.22 114.593 106.9 113.833 106.52C113.093 106.14 112.333 105.77 111.553 105.41C110.773 105.03 109.943 104.71 109.063 104.45C108.183 104.19 107.233 104.06 106.213 104.06C105.473 104.06 104.693 104.18 103.873 104.42C103.053 104.66 102.283 105.01 101.563 105.47C100.843 105.93 100.263 106.5 99.8231 107.18C99.3831 107.84 99.1631 108.6 99.1631 109.46C99.1631 110.06 99.3231 110.65 99.6431 111.23C99.9631 111.81 100.393 112.29 100.933 112.67C101.473 113.05 102.053 113.24 102.673 113.24C103.053 113.24 103.373 113.17 103.633 113.03C103.913 112.89 104.133 112.76 104.293 112.64C104.473 112.5 104.613 112.43 104.713 112.43C104.833 112.43 104.893 112.49 104.893 112.61C104.893 112.85 104.713 113.07 104.353 113.27C104.013 113.45 103.643 113.6 103.243 113.72C102.843 113.82 102.543 113.87 102.343 113.87ZM108.523 125.33C107.843 125.33 107.313 125.17 106.933 124.85C106.553 124.51 106.283 124.08 106.123 123.56C105.983 123.04 105.913 122.49 105.913 121.91C105.913 120.85 106.013 119.64 106.213 118.28C106.433 116.9 106.743 115.5 107.143 114.08C107.563 112.66 108.063 111.33 108.643 110.09C109.243 108.83 109.913 107.81 110.653 107.03C110.793 106.87 110.983 106.79 111.223 106.79C111.363 106.79 111.523 106.83 111.703 106.91C111.883 106.97 111.983 107.08 112.003 107.24L111.913 107.48C111.673 107.86 111.413 108.22 111.133 108.56C110.853 108.9 110.593 109.27 110.353 109.67C109.313 111.41 108.453 113.32 107.773 115.4C107.113 117.46 106.783 119.52 106.783 121.58C106.783 121.98 106.803 122.4 106.843 122.84C106.883 123.26 107.003 123.64 107.203 123.98C107.403 124.32 107.733 124.56 108.193 124.7C108.293 124.72 108.403 124.76 108.523 124.82C108.663 124.88 108.733 124.98 108.733 125.12C108.733 125.26 108.663 125.33 108.523 125.33ZM115.576 113.21C115.436 113.21 115.306 113.18 115.186 113.12C115.066 113.04 115.006 112.93 115.006 112.79C115.006 112.63 115.076 112.39 115.216 112.07C115.356 111.73 115.536 111.39 115.756 111.05C115.976 110.71 116.206 110.42 116.446 110.18C116.706 109.94 116.936 109.82 117.136 109.82C117.296 109.82 117.376 109.92 117.376 110.12C117.376 110.36 117.246 110.55 116.986 110.69C116.826 110.79 116.686 110.98 116.566 111.26C116.466 111.54 116.376 111.83 116.296 112.13C116.236 112.43 116.176 112.67 116.116 112.85C116.056 113.09 115.876 113.21 115.576 113.21ZM114.976 124.7C114.516 124.7 114.176 124.51 113.956 124.13C113.736 123.73 113.596 123.28 113.536 122.78C113.476 122.26 113.446 121.84 113.446 121.52C113.446 121.32 113.466 120.95 113.506 120.41C113.566 119.87 113.636 119.27 113.716 118.61C113.816 117.93 113.926 117.27 114.046 116.63C114.186 115.99 114.346 115.46 114.526 115.04C114.706 114.62 114.896 114.41 115.096 114.41C115.256 114.41 115.396 114.46 115.516 114.56C115.636 114.66 115.696 114.79 115.696 114.95C115.696 115.19 115.626 115.57 115.486 116.09C115.346 116.61 115.176 117.2 114.976 117.86C114.796 118.52 114.626 119.19 114.466 119.87C114.326 120.53 114.256 121.13 114.256 121.67C114.256 121.81 114.266 122.05 114.286 122.39C114.326 122.73 114.396 123.05 114.496 123.35C114.596 123.63 114.756 123.77 114.976 123.77C115.276 123.77 115.606 123.55 115.966 123.11C116.326 122.67 116.686 122.13 117.046 121.49C117.426 120.83 117.776 120.18 118.096 119.54C118.416 118.88 118.686 118.33 118.906 117.89C119.126 117.45 119.276 117.23 119.356 117.23C119.456 117.23 119.516 117.27 119.536 117.35C119.576 117.41 119.596 117.48 119.596 117.56C119.596 117.82 119.486 118.24 119.266 118.82C119.046 119.38 118.756 120 118.396 120.68C118.036 121.34 117.646 121.98 117.226 122.6C116.806 123.2 116.396 123.7 115.996 124.1C115.596 124.5 115.256 124.7 114.976 124.7ZM119.252 125.42C119.072 125.42 118.952 125.36 118.892 125.24C118.832 125.12 118.802 124.99 118.802 124.85V124.79C118.802 123.71 118.882 122.7 119.042 121.76C119.202 120.82 119.352 119.87 119.492 118.91C119.652 117.93 119.732 116.86 119.732 115.7C119.732 115.38 119.712 115.01 119.672 114.59C119.652 114.15 119.582 113.72 119.462 113.3C119.362 112.88 119.202 112.55 118.982 112.31C118.902 112.23 118.862 112.13 118.862 112.01C118.862 111.83 118.942 111.67 119.102 111.53C119.262 111.39 119.432 111.31 119.612 111.29L119.882 111.41C120.122 111.63 120.292 112.02 120.392 112.58C120.492 113.12 120.552 113.67 120.572 114.23C120.592 114.79 120.602 115.23 120.602 115.55C120.602 115.99 120.592 116.43 120.572 116.87C120.552 117.31 120.522 117.76 120.482 118.22C120.582 117.96 120.722 117.63 120.902 117.23C121.082 116.81 121.292 116.4 121.532 116C121.792 115.58 122.062 115.23 122.342 114.95C122.642 114.67 122.962 114.53 123.302 114.53C123.642 114.53 123.902 114.72 124.082 115.1C124.262 115.46 124.382 115.91 124.442 116.45C124.522 116.99 124.572 117.51 124.592 118.01C124.612 118.49 124.622 118.85 124.622 119.09C124.742 118.79 124.932 118.36 125.192 117.8C125.472 117.24 125.792 116.63 126.152 115.97C126.532 115.31 126.932 114.68 127.352 114.08C127.772 113.48 128.182 112.99 128.582 112.61C128.982 112.21 129.352 112.01 129.692 112.01C129.972 112.01 130.142 112.16 130.202 112.46C130.282 112.76 130.322 113.01 130.322 113.21C130.322 114.01 130.242 114.82 130.082 115.64C129.942 116.46 129.792 117.29 129.632 118.13C129.492 118.97 129.422 119.82 129.422 120.68C129.422 120.78 129.422 121 129.422 121.34C129.442 121.68 129.482 122 129.542 122.3C129.622 122.58 129.752 122.72 129.932 122.72C130.232 122.72 130.542 122.57 130.862 122.27C131.182 121.97 131.472 121.63 131.732 121.25C132.012 120.85 132.242 120.5 132.422 120.2C132.622 119.88 132.752 119.72 132.812 119.72C132.892 119.8 132.932 119.9 132.932 120.02C132.932 120.22 132.822 120.52 132.602 120.92C132.382 121.32 132.102 121.73 131.762 122.15C131.442 122.57 131.112 122.93 130.772 123.23C130.432 123.51 130.152 123.65 129.932 123.65C129.552 123.65 129.252 123.46 129.032 123.08C128.832 122.7 128.692 122.27 128.612 121.79C128.552 121.31 128.522 120.94 128.522 120.68C128.522 119.9 128.572 119.13 128.672 118.37C128.772 117.59 128.892 116.82 129.032 116.06C129.112 115.66 129.212 115.24 129.332 114.8C129.472 114.36 129.542 113.94 129.542 113.54C129.542 113.42 129.502 113.3 129.422 113.18L129.362 113.15C129.242 113.15 129.082 113.27 128.882 113.51C128.682 113.73 128.492 113.97 128.312 114.23C128.152 114.49 128.032 114.67 127.952 114.77C127.192 115.85 126.582 116.97 126.122 118.13C125.662 119.27 125.142 120.43 124.562 121.61C124.522 121.69 124.462 121.77 124.382 121.85C124.322 121.93 124.242 121.97 124.142 121.97C123.942 121.97 123.802 121.78 123.722 121.4C123.662 121 123.632 120.55 123.632 120.05C123.632 119.59 123.642 119.16 123.662 118.76C123.702 118.34 123.722 118.05 123.722 117.89C123.722 117.81 123.712 117.64 123.692 117.38C123.692 117.12 123.672 116.84 123.632 116.54C123.612 116.24 123.572 115.98 123.512 115.76C123.472 115.54 123.402 115.43 123.302 115.43C123.102 115.43 122.942 115.51 122.822 115.67C122.722 115.83 122.622 115.99 122.522 116.15C121.942 117.13 121.472 118.14 121.112 119.18C120.792 120.14 120.562 121.13 120.422 122.15C120.282 123.15 120.042 124.12 119.702 125.06C119.642 125.3 119.492 125.42 119.252 125.42ZM135.726 125C135.186 125 134.766 124.76 134.466 124.28C134.186 123.8 133.996 123.22 133.896 122.54C133.796 121.84 133.746 121.19 133.746 120.59C133.746 120.31 133.746 120.06 133.746 119.84C133.766 119.6 133.786 119.4 133.806 119.24H133.716C133.476 119.24 133.356 119.15 133.356 118.97C133.396 118.87 133.466 118.79 133.566 118.73C133.686 118.65 133.796 118.6 133.896 118.58C133.996 117.7 134.186 116.8 134.466 115.88C134.746 114.96 135.126 114.13 135.606 113.39V113.21C135.606 113.01 135.726 112.89 135.966 112.85C136.066 112.75 136.166 112.64 136.266 112.52C136.386 112.38 136.516 112.31 136.656 112.31C136.816 112.31 136.936 112.38 137.016 112.52C137.116 112.64 137.126 112.77 137.046 112.91C137.426 112.99 137.766 113.15 138.066 113.39C138.386 113.61 138.546 113.94 138.546 114.38C138.546 114.96 138.326 115.56 137.886 116.18C137.466 116.78 136.956 117.33 136.356 117.83C135.776 118.31 135.246 118.67 134.766 118.91C134.706 119.39 134.666 119.88 134.646 120.38C134.646 120.86 134.646 121.34 134.646 121.82C134.646 122.06 134.656 122.36 134.676 122.72C134.716 123.08 134.806 123.4 134.946 123.68C135.106 123.96 135.366 124.1 135.726 124.1C136.106 124.1 136.476 123.93 136.836 123.59C137.216 123.25 137.576 122.82 137.916 122.3C138.276 121.76 138.606 121.2 138.906 120.62C139.206 120.04 139.466 119.49 139.686 118.97C139.906 118.45 140.066 118.05 140.166 117.77C140.206 117.67 140.256 117.58 140.316 117.5C140.376 117.4 140.466 117.35 140.586 117.35C140.746 117.35 140.826 117.45 140.826 117.65C140.826 117.97 140.716 118.43 140.496 119.03C140.276 119.61 139.976 120.24 139.596 120.92C139.236 121.6 138.826 122.25 138.366 122.87C137.926 123.49 137.476 124 137.016 124.4C136.556 124.8 136.126 125 135.726 125ZM134.916 117.98C135.296 117.74 135.676 117.44 136.056 117.08C136.436 116.72 136.756 116.31 137.016 115.85C137.276 115.39 137.406 114.93 137.406 114.47C137.406 114.23 137.286 114.06 137.046 113.96C136.806 113.84 136.596 113.77 136.416 113.75C136.036 114.37 135.716 115.05 135.456 115.79C135.216 116.53 135.036 117.26 134.916 117.98ZM141.534 124.91C141.394 124.91 141.284 124.86 141.204 124.76C141.124 124.66 141.084 124.54 141.084 124.4C141.084 123.64 141.114 122.88 141.174 122.12C141.254 121.34 141.294 120.57 141.294 119.81C141.294 119.31 141.274 118.68 141.234 117.92C141.214 117.14 141.144 116.38 141.024 115.64C140.924 114.88 140.744 114.3 140.484 113.9C140.464 113.86 140.444 113.83 140.424 113.81C140.404 113.77 140.394 113.73 140.394 113.69C140.394 113.57 140.454 113.49 140.574 113.45C140.694 113.39 140.794 113.36 140.874 113.36C141.154 113.36 141.374 113.52 141.534 113.84C141.694 114.16 141.814 114.57 141.894 115.07C141.974 115.57 142.024 116.09 142.044 116.63C142.084 117.15 142.104 117.63 142.104 118.07C142.104 118.49 142.104 118.78 142.104 118.94C142.104 119.14 142.104 119.33 142.104 119.51C142.124 119.69 142.134 119.88 142.134 120.08C142.214 119.8 142.354 119.37 142.554 118.79C142.754 118.21 142.994 117.57 143.274 116.87C143.554 116.15 143.854 115.47 144.174 114.83C144.514 114.17 144.844 113.63 145.164 113.21C145.504 112.79 145.824 112.58 146.124 112.58C146.424 112.58 146.644 112.77 146.784 113.15C146.924 113.53 147.014 113.94 147.054 114.38C147.114 114.82 147.144 115.15 147.144 115.37C147.144 115.51 147.134 115.75 147.114 116.09C147.094 116.41 147.044 116.71 146.964 116.99C146.904 117.27 146.784 117.41 146.604 117.41C146.444 117.41 146.364 117.23 146.364 116.87C146.364 116.71 146.374 116.56 146.394 116.42C146.414 116.28 146.424 116.17 146.424 116.09C146.424 115.99 146.414 115.76 146.394 115.4C146.374 115.02 146.324 114.66 146.244 114.32C146.184 113.98 146.094 113.81 145.974 113.81C145.854 113.81 145.704 113.93 145.524 114.17C145.364 114.39 145.194 114.66 145.014 114.98C144.854 115.28 144.704 115.58 144.564 115.88C144.444 116.16 144.364 116.36 144.324 116.48C144.024 117.22 143.704 118.06 143.364 119C143.044 119.94 142.764 120.89 142.524 121.85C142.304 122.79 142.194 123.67 142.194 124.49C142.054 124.77 141.834 124.91 141.534 124.91Z" fill="white"/>
</svg>
